<svg id="Layer_1" data-name="Layer 1" xmlns="http://www.w3.org/2000/svg" viewBox="0 0 117.5 120.9"><defs><style>.cls-1{fill:#8a949d;}.cls-1,.cls-2,.cls-3,.cls-4,.cls-5{stroke:#3c305c;}.cls-1,.cls-4{stroke-miterlimit:10;}.cls-2,.cls-4,.cls-5{fill:none;}.cls-2,.cls-3{stroke-linecap:round;}.cls-2,.cls-3,.cls-5{stroke-linejoin:round;}.cls-3{fill:#3c305c;}</style></defs><path class="cls-1" d="M54.11,87.7" transform="translate(-9 -5.15)"/><path class="cls-1" d="M19.55,78.26" transform="translate(-9 -5.15)"/><path class="cls-2" d="M107.59,12.17" transform="translate(-9 -5.15)"/><path class="cls-2" d="M84.24,35.18a4.32,4.32,0,0,1,2.27-1.85,8.68,8.68,0,0,1,5.31-.18,5.53,5.53,0,0,1,1.44.61c2.39,1.51,2.14,4.71,3.43,10.71,0,0,.22,1,.58,4.09a5.91,5.91,0,0,1,0,.74,7.33,7.33,0,0,1-.17,1.15c-.37,1.68-1.43,3.47-4.48,8.55s-3.28,5.41-4,6.74h0c-.23.46-4.09,8.1-4.27,8A44.77,44.77,0,0,0,87,67.35c.5-2.07.75-3.1.43-4.13-.67-2.17-3.23-2.74-5.91-4.09-2-1-7.1-4.19-8.1-6.79a4.79,4.79,0,0,0-1.48-2.26c-.52-.42-.79-.42-1.08-.74-.69-.73-.14-1.76,0-3.79.11-1.68-.2-1.52,0-2.48a6.35,6.35,0,0,1,4.14-4.91A6.57,6.57,0,0,1,78,38c1,.22,1.1.54,1.83.56,1.53,0,2.74-1.34,3.48-2.17A8.57,8.57,0,0,0,84.24,35.18Z" transform="translate(-9 -5.15)"/><path class="cls-2" d="M86.74,79.05a6.29,6.29,0,0,0-1.49,2.36c-.41,1.17,0,1.82-.35,2-.73.41-3-2.8-7.22-6.09-2.33-1.81-3.4-2.19-4.18-1.83S72.4,77,72.29,77.75c-2.27,3-2.38,4.57-2,5.4a1.85,1.85,0,0,1,.27,1.39,2,2,0,0,1-1.4,1" transform="translate(-9 -5.15)"/><path class="cls-2" d="M84.9,83.41a40.94,40.94,0,0,0-5.48,3.22c-3.07,2.14-3.83,3.31-6.09,4-.57.17-4.84,1.48-6.61-.78-1.15-1.47-.91-4,.17-5.57a4.73,4.73,0,0,1,.78-.87l2.88,1.13" transform="translate(-9 -5.15)"/><path class="cls-2" d="M89.31,71.8a35.93,35.93,0,0,1,8.12-.49c5,.28,6,1.44,11.23,1.57,3.87.09,4.36-.52,7,.08,1.28.3,5.78,1.35,6.79,4.44.13.39,0,.14-.09,4.44,0,1.91,0,2.93-.69,3.39s-1.19-.12-1.83.27c-1.21.73,0,3.2-1.22,4.61s-4.06.64-4.18.61a6.39,6.39,0,0,1-3-2c-1.67-1.86-4.54-3.3-10.26-6.18S94,79.18,91.17,77c-.21-.17-1.58-1.06-1.86-1.21" transform="translate(-9 -5.15)"/><path class="cls-2" d="M97.27,48.56a14.33,14.33,0,0,0,3.24-7c.31-2.14,0-4.08,1.45-5.74a6.4,6.4,0,0,1,2.44-1.63c1.18-.52,3.54-1.57,5.16-.4A4.14,4.14,0,0,1,111,37a5.33,5.33,0,0,0,1.39,3,5.86,5.86,0,0,1,1.45,1.63,3.9,3.9,0,0,1,.41,1.51,11.93,11.93,0,0,0,4.58,2.14c2.08.46,2.82,0,4.18.7a5.53,5.53,0,0,1,3,5c-.17,1.39-1.08,1.49-1.92,3.94-.55,1.63-.29,2-.75,2.79-1.09,1.86-4.17,1.43-5,2.26-3.13,3-7.81,2.47-11.89,3.31s-9.84,2.91-17.06,8.58l-4,.25" transform="translate(-9 -5.15)"/><path class="cls-2" d="M84.38,73.75c2.52,4,2.92,7.2,2.79,9.4-.17,2.66-1.24,5.88-.79,9.22a8,8,0,0,1,.09,2.26c-.24,2-1.17,2.64-1,3.74.08.76.66,1.76,2.87,2.79a4.94,4.94,0,0,0,.69,6.26,4.69,4.69,0,0,0,3.75.79c3.86,1.2,5.31.86,5.83.17.39-.53.23-1.25.87-1.83s1.48-.21,2.43-.43c1.61-.38,2.48-2.16,2.87-3,1.32-2.67-.95-7.84-6-12.44-.9-2-1.72-3.59-2.26-4.62C93.27,80.08,91,76,86.82,74.36A10.2,10.2,0,0,0,84.38,73.75Z" transform="translate(-9 -5.15)"/><path class="cls-2" d="M84.38,73.75c-.31,2.92-1.5,5.13-3.13,5.48a5.52,5.52,0,0,1-1.41-.12" transform="translate(-9 -5.15)"/><path class="cls-2" d="M87.26,66c-.39.54-1,1.4-1.88,2.41-1.23,1.45-1.8,1.91-1.91,2.78a3.3,3.3,0,0,0,.91,2.53" transform="translate(-9 -5.15)"/><path class="cls-2" d="M98.59,55.26a33.87,33.87,0,0,0,5-4.83,33.2,33.2,0,0,0,3.31-4.75" transform="translate(-9 -5.15)"/><path class="cls-2" d="M103.22,42.81" transform="translate(-9 -5.15)"/><path class="cls-2" d="M96.1,58.29c1.75-1,5.73-3.81,6.77-4.17a9.73,9.73,0,0,0,4-1.95A6.75,6.75,0,0,0,108,51" transform="translate(-9 -5.15)"/><path class="cls-2" d="M102.87,54.12a11.14,11.14,0,0,1,1.48-2,10.82,10.82,0,0,1,1.48-1.3" transform="translate(-9 -5.15)"/><path class="cls-2" d="M112.79,49.3" transform="translate(-9 -5.15)"/><path class="cls-2" d="M111.05,52.69" transform="translate(-9 -5.15)"/><path class="cls-2" d="M98,43.51" transform="translate(-9 -5.15)"/><path class="cls-2" d="M88.56,66.47c1.48-2,2.79-3.68,3.83-4.93a48,48,0,0,1,3.3-3.72,35.54,35.54,0,0,1,2.9-2.56,38.48,38.48,0,0,0-2.49,3,45.18,45.18,0,0,0-2.49,3.83c-.85,1.38-2.12,3.37-3.83,5.8a17.61,17.61,0,0,0,5.39-3.83,17.29,17.29,0,0,0,1.74-2.15l-.46,1.74a25.14,25.14,0,0,0,3.89-2.49c.83-.66,1.29-1.09,1.31-1.06A34,34,0,0,1,95,66.53a37.74,37.74,0,0,1-9.44,5.19Z" transform="translate(-9 -5.15)"/><path class="cls-2" d="M90.12,63.21A5.6,5.6,0,0,0,90.43,60a5.47,5.47,0,0,0-1.13-2.35,9.51,9.51,0,0,1,.56,3.18,13.06,13.06,0,0,1-1.51,5.5A23.38,23.38,0,0,0,90.12,63.21Z" transform="translate(-9 -5.15)"/><path class="cls-2" d="M89.3,57.65A19.88,19.88,0,0,0,86.82,53c-1.35-1.86-2.39-2.58-3.09-4.39a8.62,8.62,0,0,1-.52-3.74" transform="translate(-9 -5.15)"/><path class="cls-2" d="M89.59,58.61c-1.45-1-3-2-4.47-3.14A85.23,85.23,0,0,1,77.46,49" transform="translate(-9 -5.15)"/><path class="cls-2" d="M82.34,50" transform="translate(-9 -5.15)"/><path class="cls-2" d="M85.46,55.73" transform="translate(-9 -5.15)"/><path class="cls-2" d="M87.82,44" transform="translate(-9 -5.15)"/><path class="cls-2" d="M94,56.71a25.16,25.16,0,0,0-2.29-7" transform="translate(-9 -5.15)"/><path class="cls-2" d="M93.72,55.23a23.81,23.81,0,0,0,.36-4.11,24.46,24.46,0,0,0-1.61-8.83" transform="translate(-9 -5.15)"/><path class="cls-2" d="M93,52.85c-.75-.92-1.55-1.86-2.39-2.82s-1.84-2-2.74-3" transform="translate(-9 -5.15)"/><path class="cls-2" d="M80.49,85.91a12.8,12.8,0,0,1-8.2-.28" transform="translate(-9 -5.15)"/><path class="cls-2" d="M77.41,86.44a6.45,6.45,0,0,1-2,1.14c-1.4.48-2.22.17-3.39.74a4.59,4.59,0,0,0-1.57,1.31" transform="translate(-9 -5.15)"/><path class="cls-2" d="M83.45,70.48a9.17,9.17,0,0,0-4.64-1.17c-2.87-.07-5.46,1.54-7.31,2.61-.52.3-.93.57-1.22.75-1,0-1.44.13-1.45.24s.54.27,1.63.46l3,2.12" transform="translate(-9 -5.15)"/><path class="cls-2" d="M77,76.81a6.15,6.15,0,0,0,7.26-2.19" transform="translate(-9 -5.15)"/><path class="cls-2" d="M78.28,87.45a38.11,38.11,0,0,1,0,5.3c-.12,1.72-.32,3.1-.46,3.94a25.87,25.87,0,0,0,5.33-6A26.2,26.2,0,0,0,87,80.31" transform="translate(-9 -5.15)"/><path class="cls-2" d="M81.36,76.85a14.2,14.2,0,0,0-1.52,2.26" transform="translate(-9 -5.15)"/><path class="cls-2" d="M81.77,69.54A10.71,10.71,0,0,1,83,65.07a8.47,8.47,0,0,1,3.14-3.58" transform="translate(-9 -5.15)"/><path class="cls-2" d="M94.65,68.07a23.9,23.9,0,0,1,16.36.78,28.64,28.64,0,0,0-6.13,3.55" transform="translate(-9 -5.15)"/><path class="cls-2" d="M96,80c1.26,1.82,1.44,2.28,2.49,6.12.94,3.38,1.08,3.25,1,5.32" transform="translate(-9 -5.15)"/><path class="cls-2" d="M84.68,74.25a12.4,12.4,0,0,1,4.4,6.11,14.21,14.21,0,0,1,.35,6.44" transform="translate(-9 -5.15)"/><path class="cls-2" d="M84.68,74.25a13,13,0,0,1,5.18,3.33C94.69,82.7,93.27,90,93.08,90.89" transform="translate(-9 -5.15)"/><path class="cls-2" d="M84.68,74.25a8.43,8.43,0,0,1,2.83-1.37,8.24,8.24,0,0,1,2.79-.26" transform="translate(-9 -5.15)"/><path class="cls-3" d="M92.29,91.33a1.34,1.34,0,0,0-.29.81,2.72,2.72,0,0,0,.58,1.69c.28.42.1.52.28.42s.22-.53.42-2c.09-.64.32-1,.12-1.22S92.6,91,92.29,91.33Z" transform="translate(-9 -5.15)"/><path class="cls-3" d="M89.31,86a2.68,2.68,0,0,0-.49.91c-.27.88,0,.68,0,2s0,1.29.14,1.34.88-.12,1.11-1.93c.1-.76.16-2.23-.31-2.44A.52.52,0,0,0,89.31,86Z" transform="translate(-9 -5.15)"/><path class="cls-3" d="M90.3,72.49a3.09,3.09,0,0,1,2.31-.24c.22.08.67.24.68.48,0,.4-1.18.76-2,.87-.47.07-1.32.2-1.47-.16S90.18,72.62,90.3,72.49Z" transform="translate(-9 -5.15)"/><path class="cls-4" d="M54.69,91.47a3.43,3.43,0,0,0-2.79,2.41,3.54,3.54,0,0,0,.61,3,4.72,4.72,0,0,0,2.18-5.37" transform="translate(-9 -5.15)"/><path class="cls-2" d="M44.19,50.52c0-6.32-1.92-10-3.72-12.3-2.43-3.06-4.65-3.36-7.89-7.66a24.29,24.29,0,0,1-4-7.77c-.78-2.75-2.33-8.26.7-11.43a7.8,7.8,0,0,1,5.51-2.15c1.43,0,1.61.51,2.78.35,2.16-.31,2.52-2.09,4.88-3.19a7.69,7.69,0,0,1,4.64-.58c3.88.82,5.57,4.92,5.8,5.51a9.56,9.56,0,0,1,.64,3c.33,7-2.88,18.93-3.72,22.39a60.35,60.35,0,0,0-1.62,15.37" transform="translate(-9 -5.15)"/><path class="cls-2" d="M48.42,51.85a24.56,24.56,0,0,1,1.34-4.35,23.92,23.92,0,0,1,1.91-3.71,14.85,14.85,0,0,1,5.57,2c.85.52,1.43,1,2.15.87,1.39-.26,2-2.57,2.43-4.06,2-6.34,7-12.73,12.13-13.92a8,8,0,0,1,1-.18,7.43,7.43,0,0,0,.29-3.71c-.61-3.33-3.51-6.86-6.5-6.44-2.49.35-4.3.13-5.57.58a15.62,15.62,0,0,0-7,5.45c-2.81,3.5-4,7-6,13.06-.64,1.9-1.11,3.5-1.42,4.61" transform="translate(-9 -5.15)"/><path class="cls-2" d="M75,28.47a9.79,9.79,0,0,0-5.16-2,15.4,15.4,0,0,0-3.37.35c-4.25.63-5.09.24-6.2.58-2.8.85-5.4,5.84-5.11,10.56a13.41,13.41,0,0,0,4.24,8.64" transform="translate(-9 -5.15)"/><path class="cls-2" d="M44.19,50.52" transform="translate(-9 -5.15)"/><path class="cls-2" d="M44.19,50.52c-5.64-3.3-10.65-5.9-14.74-7.89-3.45-1.69-6.77-3.19-11-2.79-1.66.16-4.42.43-5.66,2.35-1.1,1.71,0,3.21-1.31,6.35-.72,1.76-1.2,1.62-1.65,3.14-.62,2.08-.56,5.13,1.05,6.18.78.51,1.67.35,3.65-.09,4.08-.92,7.26-1.82,7.92-2,2.88-.8,3.76-.5,6-.65a24.19,24.19,0,0,0,2.66-.31,38.09,38.09,0,0,0,6.75-1.74,19.71,19.71,0,0,1,6-1.16,21.55,21.55,0,0,1,4.29.17Z" transform="translate(-9 -5.15)"/><path class="cls-2" d="M19.33,56.62c-2.85.85-3.52,1.62-3.54,2.19s1,.95,1.48,2.18c.61,1.43-.19,2.38,0,3.39C17.68,66.67,23,68.66,27.71,68c5.44-.71,9-4.66,11.92-7.92.32-.36,1.16-2,1.43-2.4" transform="translate(-9 -5.15)"/><path class="cls-2" d="M55,59.07a38.22,38.22,0,0,1-6.53-7.22,8.64,8.64,0,0,1-3.25,2.55c-1.18.52-1.88.47-2.71,1.12a4.83,4.83,0,0,0-1.61,3.17,65.16,65.16,0,0,1-.78,6.65c-.7,4-1.46,6-.26,7.57.57.73,1.16.81,2.08,2.09,1,1.44.78,2,1.4,2.52,1.18.94,3.23-.35,7.65-2.09,5-1.94,5.19-1.41,6.44-2.52,2.33-2.06,3.77-5.86,2.7-8.79-.75-2.05-2.23-2.57-5.13-5.05" transform="translate(-9 -5.15)"/><path class="cls-2" d="M44,47.15a35.85,35.85,0,0,0-17.83-10.7,10.24,10.24,0,0,1,3.66,4.09,10.43,10.43,0,0,1,.89,2.69" transform="translate(-9 -5.15)"/><path class="cls-2" d="M48.42,51.85a14.69,14.69,0,0,1,5,.52c.89.26,5.44,1.57,7.74,5.66a8.88,8.88,0,0,1,.44.87,13.43,13.43,0,0,1-4.35.61,12.51,12.51,0,0,1-2-.21" transform="translate(-9 -5.15)"/><path class="cls-2" d="M52,52a13.7,13.7,0,0,0,1.69-5.14,13.28,13.28,0,0,0,0-2.66" transform="translate(-9 -5.15)"/><path class="cls-2" d="M40.8,59.33a16,16,0,0,0,.57,19.41,23.42,23.42,0,0,0,1.43-2" transform="translate(-9 -5.15)"/><path class="cls-2" d="M48.7,76.35a20.81,20.81,0,0,0,1.81,5,20.53,20.53,0,0,0,4.79,6.09,29.43,29.43,0,0,0,1.91-5.65c1-4.3,1.24-6,.7-7.66a7.61,7.61,0,0,0-.53-1.22" transform="translate(-9 -5.15)"/><path class="cls-2" d="M59.3,71.17a9.78,9.78,0,0,1,1.3,3.31,10.57,10.57,0,0,1-.26,4.7,61.61,61.61,0,0,1-2.56,8.2,3.32,3.32,0,0,0-.09,2.11c1,3.36,2.15,7,3.61,10.74,1.34,3.47,2.76,6.67,4.18,9.58" transform="translate(-9 -5.15)"/><path class="cls-2" d="M65.48,109.81a36.75,36.75,0,0,1-.7-11.14A26.13,26.13,0,0,1,67,90.16" transform="translate(-9 -5.15)"/><path class="cls-5" d="M69.36,125.88a83.13,83.13,0,0,0-1.78-10.83,28.41,28.41,0,0,0,.59-5.5c0-4.11-.83-6-1-8.71a16.7,16.7,0,0,1,2.85-9.68" transform="translate(-9 -5.15)"/><path class="cls-5" d="M54.69,91.47a64.54,64.54,0,0,0,2.16,6.26c2.23,5.53,4,7.7,6,13.54,0,0,.55,1.61,1.12,3.67A66.51,66.51,0,0,1,66,126" transform="translate(-9 -5.15)"/><path class="cls-2" d="M19.88,77.67a6.68,6.68,0,0,0,2.09,2,10,10,0,0,0,3.36,1c1,.2,2.24.43,3.79.61" transform="translate(-9 -5.15)"/><path class="cls-4" d="M64,114.92a3.48,3.48,0,0,1-3-.31,4.11,4.11,0,0,1-1.64-4,4.9,4.9,0,0,1,2.8,1.15A5.73,5.73,0,0,1,64,114.92" transform="translate(-9 -5.15)"/><path class="cls-4" d="M67.58,115.05a6.51,6.51,0,0,1,1.49-1.76,6.76,6.76,0,0,1,1.74-1.05,2.5,2.5,0,0,1-.92,2.44,2.63,2.63,0,0,1-2.31.37" transform="translate(-9 -5.15)"/><path class="cls-4" d="M65,114.68c-.06-.58,0-1.12.18-1.22.42-.17,1.52,1.16,1.3,1.48C66.34,115.08,66,115.08,65,114.68Z" transform="translate(-9 -5.15)"/><path class="cls-4" d="M57.56,88.66a1.94,1.94,0,0,1,3.3-.87,6.92,6.92,0,0,1-1.82.7,4.86,4.86,0,0,1-1.48.17" transform="translate(-9 -5.15)"/><path class="cls-2" d="M43.78,45.89a26.78,26.78,0,0,0,.06-6.45,54.36,54.36,0,0,0-1.1-5.69c.07,0,1.18,4.9,1.79,4.82.25,0,.2-1.09.35-1.11.46,0,1.38,10.12,1.92,10.1.3,0,.34-3.2.69-10.68.12-2.37.22-4.33.29-5.68.3,2.79.52,5.81.58,9.05.06,2.66,0,5.18-.11,7.54" transform="translate(-9 -5.15)"/><path class="cls-2" d="M42.74,33.75A13.59,13.59,0,0,1,35.54,25" transform="translate(-9 -5.15)"/><path class="cls-2" d="M43.45,36.25a18.14,18.14,0,0,0,.1-6.62,17.91,17.91,0,0,0-1.16-3.94" transform="translate(-9 -5.15)"/><path class="cls-2" d="M47.78,31.2A24.72,24.72,0,0,1,46,22.73a24.12,24.12,0,0,1,.53-5.8" transform="translate(-9 -5.15)"/><path class="cls-2" d="M47.49,30c.24-1.15.46-3.23.64-4.52.26-1.85.4-3.57.47-5.17" transform="translate(-9 -5.15)"/><path class="cls-2" d="M48.19,49a14.13,14.13,0,0,1,2-7.28A11.4,11.4,0,0,1,52,39.38a10.49,10.49,0,0,0-2.26,8.12" transform="translate(-9 -5.15)"/><path class="cls-2" d="M50.22,37.41a12.65,12.65,0,0,1,2.55-3.6,12.19,12.19,0,0,1,2.61-2" transform="translate(-9 -5.15)"/><path class="cls-2" d="M52,39.38" transform="translate(-9 -5.15)"/><path class="cls-2" d="M48.19,52.08a16.49,16.49,0,0,0-9,3.34,16.09,16.09,0,0,0-4.44,5.31" transform="translate(-9 -5.15)"/><path class="cls-2" d="M47.63,52.13a17.12,17.12,0,0,0-9-2A16.82,16.82,0,0,0,31.71,52" transform="translate(-9 -5.15)"/><path class="cls-2" d="M46.45,52.28a5.54,5.54,0,0,0,.06,4.53,4.75,4.75,0,0,0,1.21,1.48" transform="translate(-9 -5.15)"/><path class="cls-3" d="M35.41,57.15a14.64,14.64,0,0,1-1.08,2.29,9.53,9.53,0,0,1-1.57,2.17c-.59.6-1.12.94-1,1s.83-.14,1.39-.43a5.41,5.41,0,0,0,2.09-1.93c1-1.58,1.15-3.47.78-3.57C35.89,56.7,35.74,56.75,35.41,57.15Z" transform="translate(-9 -5.15)"/><path class="cls-3" d="M31,51.29c-.62.92-1.25,2-1,2.3s.82,0,1.17-.3c1.25-.91,1.16-3.15.79-3.27C31.88,50,31.61,50.19,31,51.29Z" transform="translate(-9 -5.15)"/><path class="cls-3" d="M48.7,58.09c-.07-.09-.25-.34-.42-.32-.36,0-.61,1.2-.6,2.15,0,1.24.5,2.63.84,2.59s.41-1.85.42-3.44A1.75,1.75,0,0,0,48.7,58.09Z" transform="translate(-9 -5.15)"/><path class="cls-2" d="M36.26,79.33c-2.37-4.66-6.85-7.56-11.49-7.4a11.91,11.91,0,0,0-7.31,3c-.49.09-1.2.28-1.39.79s.4,1.33,1.48,2.43a25.39,25.39,0,0,0,4,3.66c2.34,1.51,6.18,4,10.19,2.7a8.75,8.75,0,0,0,4.09-3" transform="translate(-9 -5.15)"/><path class="cls-2" d="M21.22,81.62a27.84,27.84,0,0,0,14.61,0" transform="translate(-9 -5.15)"/><path class="cls-2" d="M31,82.47A4.64,4.64,0,0,1,28.23,80a3.72,3.72,0,0,0-.64-1.62c-.59-.67-1.35-.65-1.34-.87s1.69-.6,3.31-.58a8.64,8.64,0,0,1,3.77.64,9.27,9.27,0,0,1,2.93,1.8" transform="translate(-9 -5.15)"/><path class="cls-2" d="M31.67,77A11.21,11.21,0,0,0,24,72" transform="translate(-9 -5.15)"/><path class="cls-2" d="M36.26,79.33a24.36,24.36,0,0,0,4.62,4.72,25.49,25.49,0,0,0,12.88,5.1A35.33,35.33,0,0,1,46,77.46" transform="translate(-9 -5.15)"/><path class="cls-2" d="M33.8,83.82" transform="translate(-9 -5.15)"/><path class="cls-2" d="M34.91,82.6c.87.47,2.28,1.25,4,2.26,5.21,3.09,6.66,4.5,9.74,5.57a19.43,19.43,0,0,0,6,1" transform="translate(-9 -5.15)"/></svg>