<svg id="Layer_1" data-name="Layer 1" xmlns="http://www.w3.org/2000/svg" viewBox="0 0 531 177"><defs><style>.cls-1{fill:#404071;}.cls-2{fill:none;stroke:#404071;stroke-miterlimit:10;stroke-width:11px;}</style></defs><path class="cls-1" d="M299.39,344.14h50.77v18.21H321v11.1h24.61v17.17H321v29.31H299.39Z" transform="translate(-246.5 -295.5)"/><path class="cls-1" d="M360.1,344.14h21.57v75.79H360.1Z" transform="translate(-246.5 -295.5)"/><path class="cls-1" d="M431.5,343C454.32,343,472,360.16,472,382s-17.69,39-40.51,39S391,403.92,391,382,408.68,343,431.5,343Zm0,58.73c10.68,0,18.95-8.69,18.95-19.68s-8.27-19.69-18.95-19.69S412.55,371,412.55,382,420.82,401.72,431.5,401.72Z" transform="translate(-246.5 -295.5)"/><path class="cls-1" d="M513.68,392.51c-4.19-5.66-7.86-10.79-11.62-16.23l-.21.1c.1,6.39.21,12.88.21,19.27v24.28H481.33V344.14h20.2l20.1,27.43c4.19,5.65,7.85,10.78,11.62,16.22l.21-.1c-.1-6.39-.21-12.88-.21-19.26V344.14H554v75.79h-20.2Z" transform="translate(-246.5 -295.5)"/><path class="cls-1" d="M590.83,344.14h21.25l30.68,75.79H619.3L614,404.44H588l-5.55,15.49h-22.3Zm10.26,23c-1.47,4.82-2.93,9.21-4.71,14.13l-2.62,7.23h14.66l-2.52-7.23c-1.77-5.13-3.14-9.42-4.6-14.13Z" transform="translate(-246.5 -295.5)"/><path class="cls-1" d="M673.42,395.44c9.42,5.44,20.1,7.74,25.34,7.74,4.39,0,7.53-1.57,7.53-5.44,0-5.44-6.07-5.44-15.7-8.79-11.51-4-19.47-9.64-19.47-21.88,0-14.77,11.41-24.08,28.37-24.08a59.52,59.52,0,0,1,24.71,5.55v19.89c-9.11-5.13-19.16-7.54-24.5-7.54-4,0-6.7,1.26-6.7,4.61,0,4.92,5.86,4.92,15.07,8.16,11.83,4.19,20.11,10,20.11,22.82,0,15.29-12,24.61-29.63,24.61a61.71,61.71,0,0,1-25.13-5.45Z" transform="translate(-246.5 -295.5)"/><rect class="cls-2" x="5.5" y="5.5" width="520" height="166"/></svg>