<svg id="Layer_1" data-name="Layer 1" xmlns="http://www.w3.org/2000/svg" viewBox="0 0 90 90"><defs><style>.cls-1{fill:#ec9993;}</style></defs><path class="cls-1" d="M57.37,22.87a3,3,0,1,1,4.29,4.29L38.82,50,61.66,72.85a3,3,0,1,1-4.29,4.29l-25-25a3,3,0,0,1,0-4.29Z" transform="translate(-5 -5)"/><path class="cls-1" d="M18,18.39A45,45,0,0,0,50,95,45,45,0,0,0,81.62,18,45,45,0,0,0,18,18.39ZM11.07,50.25A38.93,38.93,0,0,1,77.35,22.3a38.93,38.93,0,1,1-54.7,55.4A38.63,38.63,0,0,1,11.07,50.25Z" transform="translate(-5 -5)"/></svg>