<svg id="Layer_1" data-name="Layer 1" xmlns="http://www.w3.org/2000/svg" viewBox="0 0 90 90"><defs><style>.cls-1{fill:#ec9993;}</style></defs><path class="cls-1" d="M42.63,22.87a3,3,0,1,0-4.29,4.29L61.18,50,38.34,72.85a3,3,0,1,0,4.29,4.29l25-25a3,3,0,0,0,0-4.29Z" transform="translate(-5 -5)"/><path class="cls-1" d="M82,18.39A45,45,0,0,1,18,81.62,45,45,0,0,1,50,5,44.64,44.64,0,0,1,82,18.39Zm6.91,31.86A38.93,38.93,0,0,0,22.65,22.3a38.93,38.93,0,1,0,54.7,55.4A38.63,38.63,0,0,0,88.93,50.25Z" transform="translate(-5 -5)"/></svg>